<?xml version="1.0" encoding="UTF-8" standalone="no"?>
<!DOCTYPE svg PUBLIC "-//W3C//DTD SVG 1.1//EN" "http://www.w3.org/Graphics/SVG/1.1/DTD/svg11.dtd">
<svg width="100%" height="100%" viewBox="0 0 3574 684" version="1.1" xmlns="http://www.w3.org/2000/svg" xmlns:xlink="http://www.w3.org/1999/xlink" xml:space="preserve" xmlns:serif="http://www.serif.com/" style="fill-rule:evenodd;clip-rule:evenodd;stroke-linejoin:round;stroke-miterlimit:2;">
    <g id="Header">
        <g id="Header-Background" serif:id="Header Background" opacity="0.25">
            <rect x="-0.595" y="-0.863" width="3577.11" height="688.351" style="fill:none;"/>
            <g>
                <clipPath id="_clip1">
                    <rect x="-0.595" y="-0.863" width="3577.11" height="688.351"/>
                </clipPath>
                <g clip-path="url(#_clip1)">
                    <path d="M1830.41,214.978C1828.04,217.847 1825.11,220.093 1821.62,221.715C1818.12,223.337 1814.32,224.148 1810.2,224.148C1807.58,224.148 1805.06,223.773 1802.62,223.025C1800.19,222.276 1797.91,221.278 1795.79,220.03L1795.98,220.03L1795.79,220.03L1743.2,272.806C1744.45,274.802 1745.45,277.017 1746.2,279.449C1746.95,281.882 1747.32,284.409 1747.32,287.029C1747.32,294.39 1744.67,300.722 1739.37,306.024C1734.06,311.327 1727.73,313.978 1720.37,313.978C1713.38,313.978 1707.37,311.67 1702.31,307.054C1697.26,302.437 1694.36,296.761 1693.61,290.023L1693.42,290.023C1686.68,289.15 1681.01,286.187 1676.39,281.134C1671.78,276.081 1669.47,270.061 1669.47,263.074C1669.47,255.713 1672.12,249.381 1677.42,244.079C1682.72,238.776 1689.06,236.125 1696.42,236.125C1699.04,236.125 1701.56,236.499 1704,237.248C1706.43,237.997 1708.71,238.995 1710.83,240.242L1710.64,240.242L1710.83,240.242L1763.41,187.654L1763.41,187.467C1762.17,185.471 1761.17,183.256 1760.42,180.823C1759.67,178.39 1759.3,175.864 1759.3,173.244C1759.3,165.883 1761.95,159.551 1767.25,154.248C1772.55,148.946 1778.89,146.295 1786.25,146.295C1793.23,146.295 1799.25,148.603 1804.31,153.219C1809.36,157.835 1812.26,163.512 1813.01,170.25L1813.01,170.437C1819.87,171.185 1825.61,174.086 1830.23,179.139C1834.84,184.192 1837.15,190.212 1837.15,197.199C1837.15,200.567 1836.56,203.78 1835.37,206.837C1834.19,209.893 1832.53,212.607 1830.41,214.978Z" style="fill:url(#_Linear4);fill-rule:nonzero;"/>
                    <g>
                        <path d="M2723.98,419.088C2716.08,413.942 2709.59,407.205 2704.51,398.876C2699.43,390.547 2696.3,381.202 2695.12,370.839C2694.38,364.245 2694.59,357.779 2695.78,351.442C2696.97,345.104 2698.83,339.088 2701.37,333.393L2701.42,333.864C2701.38,333.55 2701.37,333.393 2701.37,333.393L2553.5,216.123C2548.84,219.834 2543.55,222.98 2537.64,225.559C2531.73,228.139 2525.48,229.803 2518.88,230.552C2500.36,232.657 2483.66,227.794 2468.8,215.964C2453.94,204.135 2445.45,188.956 2443.35,170.429C2441.35,152.844 2445.44,137.033 2455.62,122.996C2465.79,108.959 2479.25,100.035 2495.99,96.225L2495.94,95.754C2496.21,78.547 2502.04,63.412 2513.44,50.349C2524.84,37.286 2539.33,29.755 2556.92,27.758C2575.44,25.654 2592.14,30.516 2607,42.346C2621.86,54.176 2630.34,69.354 2632.45,87.881C2633.2,94.475 2632.98,100.941 2631.79,107.278C2630.6,113.616 2628.74,119.632 2626.2,125.327L2626.15,124.856C2626.15,124.856 2626.17,125.013 2626.2,125.327L2773.6,242.65C2773.6,242.65 2773.75,242.632 2774.07,242.596C2778.74,238.886 2784.02,235.74 2789.93,233.161C2795.84,230.581 2802.1,228.917 2808.69,228.168C2827.22,226.063 2843.91,230.926 2858.77,242.756C2873.63,254.585 2882.12,269.764 2884.22,288.291C2886.22,305.875 2882.13,321.687 2871.96,335.724C2861.78,349.761 2848.32,358.685 2831.58,362.495L2831.11,362.549C2831.19,380.034 2825.53,395.308 2814.13,408.371C2802.73,421.434 2788.24,428.964 2770.66,430.962C2762.18,431.925 2753.92,431.352 2745.89,429.243C2737.86,427.133 2730.55,423.748 2723.98,419.088Z" style="fill:url(#_Linear5);fill-rule:nonzero;"/>
                    </g>
                    <path d="M3270.48,634.303C3266.3,639.366 3261.12,643.328 3254.96,646.19C3248.8,649.052 3242.08,650.483 3234.82,650.483C3230.19,650.483 3225.74,649.822 3221.44,648.502C3217.15,647.181 3213.13,645.42 3209.39,643.218L3209.72,643.218L3209.39,643.218L3116.61,736.333C3118.81,739.855 3120.57,743.762 3121.89,748.055C3123.21,752.347 3123.87,756.805 3123.87,761.427C3123.87,774.415 3119.2,785.586 3109.84,794.942C3100.48,804.297 3089.31,808.975 3076.33,808.975C3064,808.975 3053.38,804.903 3044.46,796.758C3035.55,788.613 3030.43,778.597 3029.11,766.71L3028.78,766.71C3016.89,765.169 3006.87,759.941 2998.73,751.026C2990.59,742.111 2986.51,731.49 2986.51,719.163C2986.51,706.175 2991.19,695.004 3000.55,685.648C3009.9,676.293 3021.07,671.615 3034.06,671.615C3038.68,671.615 3043.14,672.275 3047.43,673.596C3051.72,674.917 3055.74,676.678 3059.49,678.879L3059.16,678.879L3059.49,678.879L3152.27,586.095L3152.27,585.765C3150.07,582.243 3148.31,578.336 3146.99,574.043C3145.66,569.751 3145.01,565.293 3145.01,560.67C3145.01,547.683 3149.68,536.511 3159.04,527.156C3168.39,517.8 3179.57,513.123 3192.55,513.123C3204.88,513.123 3215.5,517.195 3224.42,525.34C3233.33,533.484 3238.45,543.5 3239.77,555.387L3239.77,555.717C3251.88,557.038 3262,562.156 3270.15,571.071C3278.29,579.987 3282.37,590.608 3282.37,602.935C3282.37,608.878 3281.32,614.547 3279.23,619.94C3277.14,625.333 3274.22,630.121 3270.48,634.303Z" style="fill:url(#_Linear6);fill-rule:nonzero;"/>
                    <path d="M3692.55,179.082C3688.37,184.145 3683.19,188.107 3677.03,190.969C3670.87,193.831 3664.15,195.262 3656.89,195.262C3652.26,195.262 3647.81,194.601 3643.51,193.281C3639.22,191.96 3635.2,190.199 3631.46,187.997L3631.79,187.997L3631.46,187.997L3538.68,281.112C3540.88,284.634 3542.64,288.541 3543.96,292.834C3545.28,297.126 3545.94,301.584 3545.94,306.206C3545.94,319.194 3541.26,330.365 3531.91,339.721C3522.55,349.076 3511.38,353.754 3498.39,353.754C3486.07,353.754 3475.45,349.682 3466.53,341.537C3457.62,333.392 3452.5,323.376 3451.18,311.489L3450.85,311.489C3438.96,309.948 3428.94,304.72 3420.8,295.805C3412.66,286.89 3408.58,276.269 3408.58,263.942C3408.58,250.954 3413.26,239.783 3422.62,230.427C3431.97,221.072 3443.14,216.394 3456.13,216.394C3460.75,216.394 3465.21,217.054 3469.5,218.375C3473.8,219.696 3477.81,221.457 3481.56,223.658L3481.22,223.658L3481.56,223.658L3574.34,130.874L3574.34,130.544C3572.14,127.022 3570.38,123.115 3569.06,118.822C3567.74,114.53 3567.08,110.072 3567.08,105.449C3567.08,92.462 3571.75,81.29 3581.11,71.935C3590.46,62.579 3601.64,57.902 3614.62,57.902C3626.95,57.902 3637.57,61.974 3646.49,70.119C3655.4,78.263 3660.52,88.279 3661.84,100.166L3661.84,100.496C3673.95,101.817 3684.07,106.935 3692.22,115.85C3700.36,124.766 3704.43,135.387 3704.43,147.714C3704.43,153.657 3703.39,159.326 3701.3,164.719C3699.21,170.112 3696.29,174.9 3692.55,179.082Z" style="fill:url(#_Linear7);fill-rule:nonzero;"/>
                    <g>
                        <path d="M2476.46,692.314C2468.6,696.257 2460.12,698.317 2451.03,698.493C2441.93,698.669 2432.93,696.796 2424.03,692.872C2418.37,690.374 2413.26,687.158 2408.72,683.221C2404.17,679.284 2400.2,674.956 2396.81,670.238L2397.21,670.417C2396.94,670.298 2396.81,670.238 2396.81,670.238L2232.84,734.191C2233.64,739.695 2233.68,745.433 2232.98,751.405C2232.28,757.377 2230.68,763.195 2228.18,768.858C2221.17,784.769 2209.4,795.928 2192.89,802.336C2176.37,808.743 2160.16,808.439 2144.25,801.424C2129.15,794.765 2118.34,784.038 2111.81,769.244C2105.29,754.45 2104.43,739.416 2109.24,724.14L2108.83,723.961C2095.1,715.652 2085.66,703.837 2080.49,688.516C2075.33,673.194 2076.08,657.982 2082.74,642.88C2089.75,626.97 2101.52,615.81 2118.03,609.403C2134.55,602.995 2150.76,603.299 2166.67,610.315C2172.34,612.812 2177.44,616.029 2181.99,619.966C2186.53,623.902 2190.5,628.23 2193.9,632.948L2193.49,632.77C2193.49,632.77 2193.63,632.829 2193.9,632.948L2357.68,569.4C2357.68,569.4 2357.74,569.265 2357.86,568.996C2357.07,563.492 2357.02,557.754 2357.72,551.781C2358.42,545.809 2360.02,539.992 2362.52,534.328C2369.53,518.418 2381.3,507.258 2397.82,500.851C2414.33,494.443 2430.54,494.747 2446.45,501.763C2461.56,508.422 2472.37,519.148 2478.89,533.942C2485.41,548.736 2486.27,563.771 2481.47,579.047L2481.29,579.451C2495.41,587.609 2505.05,599.349 2510.21,614.671C2515.37,629.992 2514.63,645.204 2507.97,660.306C2504.76,667.587 2500.41,673.967 2494.94,679.444C2489.46,684.921 2483.3,689.211 2476.46,692.314Z" style="fill:url(#_Linear8);fill-rule:nonzero;"/>
                    </g>
                </g>
            </g>
        </g>
    </g>
    <defs>
        <linearGradient id="_Linear4" x1="0" y1="0" x2="1" y2="0" gradientUnits="userSpaceOnUse" gradientTransform="matrix(167.683,0,0,167.683,3326.95,544.114)"><stop offset="0" style="stop-color:rgb(0,238,255);stop-opacity:1"/><stop offset="1" style="stop-color:rgb(224,0,255);stop-opacity:1"/></linearGradient>
        <linearGradient id="_Linear5" x1="0" y1="0" x2="1" y2="0" gradientUnits="userSpaceOnUse" gradientTransform="matrix(47.9391,422.037,-422.037,47.9391,230.901,18531.8)"><stop offset="0" style="stop-color:rgb(0,238,255);stop-opacity:1"/><stop offset="1" style="stop-color:rgb(224,0,255);stop-opacity:1"/></linearGradient>
        <linearGradient id="_Linear6" x1="0" y1="0" x2="1" y2="0" gradientUnits="userSpaceOnUse" gradientTransform="matrix(295.852,0,0,295.852,5951.89,1470.02)"><stop offset="0" style="stop-color:rgb(0,238,255);stop-opacity:1"/><stop offset="1" style="stop-color:rgb(224,0,255);stop-opacity:1"/></linearGradient>
        <linearGradient id="_Linear7" x1="0" y1="0" x2="1" y2="0" gradientUnits="userSpaceOnUse" gradientTransform="matrix(295.852,0,0,295.852,6796.03,559.582)"><stop offset="0" style="stop-color:rgb(0,238,255);stop-opacity:1"/><stop offset="1" style="stop-color:rgb(224,0,255);stop-opacity:1"/></linearGradient>
        <linearGradient id="_Linear8" x1="0" y1="0" x2="1" y2="0" gradientUnits="userSpaceOnUse" gradientTransform="matrix(362.445,159.815,-159.815,362.445,8295.16,2864.74)"><stop offset="0" style="stop-color:rgb(0,238,255);stop-opacity:1"/><stop offset="1" style="stop-color:rgb(224,0,255);stop-opacity:1"/></linearGradient>
    </defs>
</svg>
